<svg width="20" height="20" viewBox="0 0 20 20" fill="none" xmlns="http://www.w3.org/2000/svg">
<path fill-rule="evenodd" clip-rule="evenodd" d="M11.0417 1.04166V8.95832H18.9584V18.9583H1.04175V1.04166H11.0417ZM12.2917 1.40832V7.70832H18.5917L12.2917 1.40832ZM15.8334 15H11.6667V13.3333H15.8334V15ZM6.66675 6.66666V6.04166H5.41675V7.16666H4.98675C4.23008 7.16666 3.54175 7.74999 3.54175 8.55749V9.07666H4.79175V8.55749C4.79175 8.50749 4.85341 8.41666 4.98675 8.41666H7.09675C7.23008 8.41666 7.29175 8.50832 7.29175 8.55749V9.10499H8.54175V8.55749C8.54175 7.74916 7.85341 7.16666 7.09675 7.16666H6.66675V6.66666ZM6.66675 12.4167H7.09675C7.23008 12.4167 7.29175 12.325 7.29175 12.2767V11.2467C7.29175 11.2133 7.26508 11.1425 7.16175 11.1142L4.92175 9.20916L7.49008 9.90832C8.08758 10.0708 8.54175 10.5992 8.54175 11.2458V12.2767C8.54175 13.085 7.85258 13.6667 7.09675 13.6667H6.66675V14.7917H5.41675V13.6667H4.98675C4.23008 13.6667 3.54175 13.0842 3.54175 12.2767V11.7292H4.79175V12.2767C4.79175 12.3258 4.85341 12.4167 4.98675 12.4167H6.66675ZM4.92175 9.20916C4.81841 9.18166 4.79175 9.10916 4.79175 9.07666H3.54175C3.54175 9.72332 3.99591 10.2525 4.59341 10.415L7.16175 11.115L4.92175 9.20916Z" fill="white"/>
</svg>
