<svg width="20" height="20" viewBox="0 0 20 20" fill="none" xmlns="http://www.w3.org/2000/svg">
<g clipPath="url(#clip0_35_856)">
<path d="M1 19H0.25V19.75H1V19ZM1 1V0.25H0.25V1H1ZM11.8 1L12.3303 0.46967L12.1107 0.25H11.8V1ZM19 8.2H19.75V7.88934L19.5303 7.66967L19 8.2ZM19 19V19.75H19.75V19H19ZM11.8 8.2H11.05V8.95H11.8V8.2ZM7.7869 10.5517L7.98497 9.82833L7.9839 9.82803L7.7869 10.5517ZM5.0131 9.7966L5.2101 9.07293L5.20956 9.07279L5.0131 9.7966ZM5.65 7.615V8.365H7.15V7.615H5.65ZM7.15 6.4V5.65H5.65V6.4H7.15ZM5.65 14.5V15.25H7.15V14.5H5.65ZM7.15 13.285V12.535H5.65V13.285H7.15ZM1.75 19V1H0.25V19H1.75ZM1 1.75H11.8V0.25H1V1.75ZM11.2697 1.53033L18.4697 8.73033L19.5303 7.66967L12.3303 0.46967L11.2697 1.53033ZM18.25 8.2V19H19.75V8.2H18.25ZM19 18.25H1V19.75H19V18.25ZM11.05 1V8.2H12.55V1H11.05ZM11.8 8.95H19V7.45H11.8V8.95ZM11.8 15.25H16.3V13.75H11.8V15.25ZM3.625 11.8675V12.4579H5.125V11.8675H3.625ZM3.625 12.4579C3.625 13.3757 4.40476 14.0359 5.2606 14.0359V12.5359C5.20665 12.5359 5.16823 12.5159 5.14654 12.4956C5.12569 12.4761 5.125 12.4627 5.125 12.4579H3.625ZM5.2606 14.0359H7.5394V12.5359H5.2606V14.0359ZM7.5394 14.0359C8.39383 14.0359 9.175 13.3762 9.175 12.4579H7.675C7.675 12.4622 7.67451 12.4756 7.65331 12.4954C7.63125 12.5161 7.59266 12.5359 7.5394 12.5359V14.0359ZM9.175 12.4579V11.3455H7.675V12.4579H9.175ZM9.175 11.3455C9.175 10.6088 8.65743 10.0125 7.98497 9.82833L7.58883 11.2751C7.62799 11.2858 7.65145 11.3051 7.66324 11.3197C7.67456 11.3338 7.675 11.3425 7.675 11.3455H9.175ZM7.9839 9.82803L5.2101 9.07293L4.8161 10.5203L7.5899 11.2754L7.9839 9.82803ZM5.20956 9.07279C5.17114 9.06236 5.14826 9.04355 5.13675 9.02925C5.12573 9.01554 5.125 9.00673 5.125 9.0028H3.625C3.625 9.73969 4.14204 10.3373 4.81664 10.5204L5.20956 9.07279ZM5.125 9.0028V8.4421H3.625V9.0028H5.125ZM5.125 8.4421C5.125 8.43746 5.12556 8.42443 5.14613 8.40521C5.16762 8.38514 5.20611 8.365 5.2606 8.365V6.865C4.40585 6.865 3.625 7.52327 3.625 8.4421H5.125ZM5.2606 8.365H7.5394V6.865H5.2606V8.365ZM7.5394 8.365C7.59319 8.365 7.63186 8.38498 7.65372 8.40539C7.67464 8.42491 7.675 8.43799 7.675 8.4421H9.175C9.175 7.52279 8.39274 6.865 7.5394 6.865V8.365ZM7.675 8.4421V9.0334H9.175V8.4421H7.675ZM7.15 7.615V6.4H5.65V7.615H7.15ZM7.15 14.5V13.285H5.65V14.5H7.15Z" fill="#ABACA7"/>
</g>
<defs>
<clipPath id="clip0_35_856">
<rect width="20" height="20" fill="white"/>
</clipPath>
</defs>
</svg>
