<svg width="96" height="32" viewBox="0 0 96 32" fill="none" xmlns="http://www.w3.org/2000/svg">
<path d="M16.098 0H7.754V7.675H16.098V0ZM7.755 19.013H0V32H7.755V19.013ZM7.754 7.675H0V11.827H7.755L7.754 7.675Z" fill="white"/>
<path d="M16.098 11.827H7.754V19.023H16.098V11.827ZM29.498 7.675H42.973V9.932H31.908V16.053H40.584V18.31H31.908V26.294H29.498V7.675ZM44.504 7.675H46.775V26.305H44.505L44.504 7.675ZM48.885 19.78C48.885 15.446 51.37 12.753 54.755 12.753C58.611 12.753 60.989 16 60.485 20.311H51.135C51.263 23.633 53.116 24.697 54.969 24.697C57.219 24.697 58.161 22.994 58.504 22.142L60.592 22.866C59.607 25.549 57.379 26.677 54.894 26.677C51.264 26.677 48.885 24.25 48.885 19.779V19.78ZM58.15 18.427C58.15 15.925 56.565 14.627 54.744 14.627C52.998 14.627 51.37 16.032 51.177 18.427H58.15ZM65.22 19.566L60.935 13.126H63.591L65.037 15.382C65.5806 16.236 66.1163 17.0951 66.644 17.959C67.019 17.426 67.34 16.947 68.357 15.382L69.804 13.126H72.321L67.983 19.587L72.588 26.294H69.858L68.197 23.792C67.211 22.302 66.912 21.855 66.537 21.259L64.844 23.792L63.152 26.294H60.667L65.22 19.566ZM73.895 7.675H76.305V10.55H73.895V7.675ZM73.981 13.125H76.251V26.295H73.981V13.125ZM79.112 7.675H81.382V26.305H79.112V7.675ZM83.493 19.78C83.493 15.446 85.978 12.753 89.363 12.753C93.218 12.753 95.596 16 95.093 20.311H85.753C85.881 23.633 87.734 24.697 89.587 24.697C91.837 24.697 92.779 22.994 93.122 22.142L95.211 22.866C94.225 25.549 91.997 26.677 89.512 26.677C85.882 26.677 83.492 24.25 83.492 19.779L83.493 19.78ZM92.758 18.427C92.758 15.925 91.173 14.627 89.352 14.627C87.616 14.627 85.978 16.032 85.796 18.427H92.758Z" fill="white"/>
</svg>
