<svg width="20" height="20" viewBox="0 0 20 20" fill="none" xmlns="http://www.w3.org/2000/svg">
<g clip-path="url(#clip0_27_784)">
<path d="M10 12.5C11.3807 12.5 12.5 11.3807 12.5 10C12.5 8.61929 11.3807 7.5 10 7.5C8.61929 7.5 7.5 8.61929 7.5 10C7.5 11.3807 8.61929 12.5 10 12.5Z" stroke="white" stroke-width="1.5"/>
<path d="M12.0834 1.66667H7.9167V3.665C7.04497 3.95234 6.24206 4.41678 5.55837 5.02917L3.82503 4.02917L1.7417 7.6375L3.47337 8.6375C3.28656 9.53623 3.28656 10.4638 3.47337 11.3625L1.74253 12.3625L3.82587 15.9708L5.55837 14.9708C6.24208 15.5832 7.04498 16.0476 7.9167 16.335V18.3333H12.0834V16.335C12.9554 16.0478 13.7586 15.5833 14.4425 14.9708L16.1759 15.9708L18.2592 12.3625L16.5275 11.3625C16.7144 10.4638 16.7144 9.53623 16.5275 8.6375L18.2584 7.6375L16.175 4.02917L14.4425 5.02917C13.7588 4.41678 12.9559 3.95234 12.0842 3.665V1.66667H12.0834Z" stroke="white" stroke-width="1.5"/>
</g>
<defs>
<clipPath id="clip0_27_784">
<rect width="20" height="20" fill="white"/>
</clipPath>
</defs>
</svg>
