<svg width="20" height="20" viewBox="0 0 20 20" fill="none" xmlns="http://www.w3.org/2000/svg">
<g clipPath="url(#clip0_35_857)">
<path d="M10 12.5C11.3807 12.5 12.5 11.3807 12.5 10C12.5 8.61929 11.3807 7.5 10 7.5C8.61929 7.5 7.5 8.61929 7.5 10C7.5 11.3807 8.61929 12.5 10 12.5Z" stroke="#ABACA7" strokeWidth="1.5"/>
<path d="M12.0833 1.66669H7.91667V3.66502C7.04494 3.95235 6.24203 4.41679 5.55833 5.02919L3.825 4.02919L1.74166 7.63752L3.47333 8.63752C3.28652 9.53625 3.28652 10.4638 3.47333 11.3625L1.7425 12.3625L3.82583 15.9709L5.55833 14.9709C6.24204 15.5832 7.04495 16.0477 7.91667 16.335V18.3334H12.0833V16.335C12.9554 16.0478 13.7586 15.5833 14.4425 14.9709L16.1758 15.9709L18.2592 12.3625L16.5275 11.3625C16.7144 10.4638 16.7144 9.53624 16.5275 8.63752L18.2583 7.63752L16.175 4.02919L14.4425 5.02919C13.7588 4.41679 12.9559 3.95235 12.0842 3.66502V1.66669H12.0833Z" stroke="#ABACA7" strokeWidth="1.5"/>
</g>
<defs>
<clipPath id="clip0_35_857">
<rect width="20" height="20" fill="white"/>
</clipPath>
</defs>
</svg>
